# xmcd CD database file
#
# Track frame offsets:
#	180
#	13167
#	29265
#	45659
#	66138
#	88540
#	104032
#	121952
#	137970
#	146475
#	163914
#	178410
#
# Disc length: 2521 seconds
#
# Revision: 0
# Processed by: cddbd v1.5PL3 Copyright (c) Steve Scherf et al.
# Submitted via: CDex 1.51
#
DISCID=b109d70c
DTITLE=Maria Creuza - Voce Abusou
DYEAR=2001
DGENRE=Salsa
TTITLE0=Voce abusou
TTITLE1=Rio Antigo
TTITLE2=Chuvas de Verao
TTITLE3=Na Baixa do Sapateiro
TTITLE4=Doce Safadeza
TTITLE5=O Mestre Sala dos Mares
TTITLE6=Faz Parte do meu Show
TTITLE7=Rosa Morena - Falsa Baiana
TTITLE8=Ei sei que vou te Amar - Se todos Fosse Iguais a Voce
TTITLE9=Camisa Amarela - Faceira
TTITLE10=Folhas Secas
TTITLE11=Um Certo Alguem
EXTD=YEAR: 2001
EXTT0=
EXTT1=
EXTT2=
EXTT3=
EXTT4=
EXTT5=
EXTT6=
EXTT7=
EXTT8=
EXTT9=
EXTT10=
EXTT11=
PLAYORDER=
